<?xml version="1.0" standalone="no"?><!DOCTYPE svg PUBLIC "-//W3C//DTD SVG 1.1//EN" "http://www.w3.org/Graphics/SVG/1.1/DTD/svg11.dtd"><svg t="1595501882349" class="icon" viewBox="0 0 1024 1024" version="1.1" xmlns="http://www.w3.org/2000/svg" p-id="2087" xmlns:xlink="http://www.w3.org/1999/xlink" width="200" height="200"><defs><style type="text/css"></style></defs><path d="M422.680207 356.399129c-16.59291-11.254322-35.21606-16.881482-55.864332-16.881482-29.340235 0-54.582129 10.833743-75.731822 32.499182-21.148669 21.668509-31.723515 57.843406-31.723515 108.524692 0 40.577161 10.147104 72.5432 30.442336 95.890954 20.295232 23.351847 45.749974 35.026748 76.372412 35.026748 31.18935 0 56.858986-11.789511 77.013001-35.370579 20.150946-23.577998 30.228465-57.036018 30.228465-100.369965 0-27.40721-4.309142-51.333132-12.924357-71.774697C451.874109 383.502417 439.269024 367.653451 422.680207 356.399129z" p-id="2088" fill="#0b87da"></path><path d="M743.255433 429.208389c5.554506-9.262968 8.332782-19.329231 8.332782-30.202882 0-15.923668-5.378497-29.014824-16.129352-39.275515-10.754948-10.256598-27.738761-15.388479-50.951439-15.388479l-99.122555 0 0 111.395066 89.083921 0c18.939351 0 33.752732-2.102894 44.434002-6.315846C729.582015 445.210851 737.700927 438.474426 743.255433 429.208389z" p-id="2089" fill="#0b87da"></path><path d="M961.986109 446.025403 579.93167 63.971987c-39.963177-39.963177-104.754832-39.963177-144.716986 0L53.161269 446.025403c-39.963177 39.962154-39.963177 104.753809 0 144.715963L435.214684 972.795804c39.962154 39.962154 104.753809 39.962154 144.716986 0l382.054439-382.054439C1001.94724 550.778188 1001.94724 485.987556 961.986109 446.025403zM496.915955 567.590086c-12.81691 26.951839-30.976502 47.353494-54.474682 61.210084-23.499204 13.859659-48.850591 20.786419-76.052117 20.786419-29.481452 0-55.830563-7.65433-79.043241-22.968108-23.215748-15.309684-40.803311-36.210713-52.765761-62.702064-11.962449-26.489304-17.944697-54.509475-17.944697-84.062558 0-55.887868 13.95585-99.642394 41.87062-131.262556 27.9117-31.617092 63.945381-47.429219 108.095927-47.429219 28.910447 0 54.973032 7.429203 78.18878 22.278399 23.211654 14.854313 40.909735 35.565007 53.086056 62.129013 12.177344 26.567076 18.266016 56.695257 18.266016 90.379427C516.142855 510.095627 509.733888 540.64234 496.915955 567.590086zM767.821945 643.844817l-41.443901-70.052472c-12.105712-20.212344-22.076808-35.675524-29.90817-46.39568-7.834432-10.716063-14.848173-18.219967-21.042245-22.508643-6.196119-4.285606-12.497639-7.270591-18.907629-8.958022-4.699022-1.069355-12.389168-1.607614-23.072485-1.607614l-48.065715 0 0 149.522432-41.443901 0L543.937898 307.133076l138.857535 0c27.912723 0 49.13507 3.024893 63.662949 9.072633 14.525831 6.05081 26.13217 16.731056 34.82004 32.04074 8.685823 15.312754 13.030781 32.234145 13.030781 50.760081 0 23.887037-7.192819 44.023656-21.575388 60.405765-14.388708 16.386202-36.604686 26.797319-66.653049 31.236422 10.964726 5.66707 19.296485 11.254322 24.995277 16.766872 12.101619 11.943007 23.567765 26.872021 34.392298 44.787042l54.476729 91.64321L767.821945 643.845841z" p-id="2090" fill="#0b87da"></path></svg>